<svg id="SvgjsSvg1074" width="288" height="288" xmlns="http://www.w3.org/2000/svg" version="1.1" xmlns:xlink="http://www.w3.org/1999/xlink" xmlns:svgjs="http://svgjs.com/svgjs"><defs id="SvgjsDefs1075"></defs><g id="SvgjsG1076"><svg xmlns="http://www.w3.org/2000/svg" enable-background="new 0 0 512 512" viewBox="0 0 512 512" width="288" height="288"><linearGradient id="a" x1="62.21" x2="449.79" y1="429.79" y2="42.21" gradientUnits="userSpaceOnUse"><stop offset="0" stop-color="#52cc99" class="stopColor5ebce5 svgShape"></stop><stop offset=".522" stop-color="#008653" class="stopColorb678e6 svgShape"></stop><stop offset=".99" stop-color="#da6079" class="stopColorda6079 svgShape"></stop></linearGradient><path fill="url(#a)" d="M468,72h-84V34c0-9.925-8.075-18-18-18H146c-9.925,0-18,8.075-18,18v38H44c-15.439,0-28,12.561-28,28	v272c0,15.439,12.561,28,28,28h159.042l-8,40H162c-9.925,0-18,8.075-18,18v20c0,9.925,8.075,18,18,18h188c9.925,0,18-8.075,18-18
	v-20c0-9.925-8.075-18-18-18h-33.041l-8-40H468c15.439,0,28-12.561,28-28V100C496,84.561,483.439,72,468,72z M441.137,266.51
	l-5.657,5.656l-67.882-67.882l5.657-5.657L441.137,266.51z M441.137,289.138c0.001-0.001,0.001-0.002,0.002-0.002l11.311-11.312
	l11.314,11.314c3.022,3.021,4.686,7.039,4.686,11.312c0,4.274-1.664,8.292-4.686,11.313c0,0,0,0,0,0.001
	c-3.022,3.021-7.04,4.686-11.313,4.686c-4.274,0-8.292-1.664-11.314-4.687l-11.313-11.313l11.311-11.311
	C441.135,289.139,441.136,289.138,441.137,289.138z M356.284,215.598l67.882,67.882l-5.656,5.656l-67.883-67.882L356.284,215.598z
	 M343.648,205.607l-4.653-18.612l18.612,4.653L343.648,205.607z M144,278.917c2.244,1.717,5.255,2.145,7.915,1.042
	c2.989-1.238,4.938-4.155,4.938-7.391V216c0-4.418-3.582-8-8-8H144V34c0-1.103,0.897-2,2-2h220c1.103,0,2,0.897,2,2v143.754
	l-38.06-9.515c-2.724-0.683-5.61,0.116-7.597,2.104c-1.987,1.987-2.786,4.871-2.104,7.598l11.313,45.255
	c0.352,1.406,1.079,2.691,2.104,3.717L368,261.255V334c0,1.103-0.897,2-2,2H146c-1.103,0-2-0.897-2-2V278.917z M140.853,224v29.255
	l-3.314-3.314c-3.124-3.123-8.189-3.123-11.313,0l-39.598,39.599l-11.313-11.313l39.598-39.598c3.125-3.125,3.125-8.189,0-11.314
	L111.598,224H140.853z M32,100c0-6.617,5.383-12,12-12h84v120H92.284c-3.236,0-6.153,1.949-7.391,4.938s-0.554,6.431,1.734,8.719
	l11.314,11.313l-39.598,39.598c-1.5,1.501-2.343,3.535-2.343,5.657s0.843,4.156,2.343,5.657l22.627,22.627
	c1.562,1.562,3.609,2.343,5.657,2.343s4.095-0.781,5.657-2.343L128,270.793V334c0,0.677,0.045,1.343,0.118,2H32V100z M350,456
	c1.103,0,2,0.897,2,2v20c0,1.103-0.897,2-2,2H162c-1.103,0-2-0.897-2-2v-20c0-1.103,0.897-2,2-2H350z M211.359,440l8-40h73.283l8,40
	H211.359z M480,372c0,6.617-5.383,12-12,12H44c-6.617,0-12-5.383-12-12v-20h114h220h114V372z M480,336h-96.118
	c0.073-0.657,0.118-1.323,0.118-2v-56.745l45.823,45.823c6.044,6.045,14.08,9.373,22.628,9.373c8.547,0,16.583-3.328,22.627-9.372
	c0-0.001,0,0,0-0.001c1.923-1.923,3.568-4.049,4.921-6.327V336z M480,284.151c-1.354-2.279-2.999-4.405-4.922-6.328L384,186.745V88
	h84c6.617,0,12,5.383,12,12V284.151z M312,368c0,4.418-3.582,8-8,8h-96c-4.418,0-8-3.582-8-8s3.582-8,8-8h96
	C308.418,360,312,363.582,312,368z M344,360h48c4.418,0,8,3.582,8,8s-3.582,8-8,8h-48c-4.418,0-8-3.582-8-8S339.582,360,344,360z
	 M176,368c0,4.418-3.582,8-8,8h-48c-4.418,0-8-3.582-8-8s3.582-8,8-8h48C172.418,360,176,363.582,176,368z M168,96h176
	c4.418,0,8-3.582,8-8V56c0-4.418-3.582-8-8-8H168c-4.418,0-8,3.582-8,8v32C160,92.418,163.582,96,168,96z M176,64h160v16H176V64z
	 M352,120c0,4.418-3.582,8-8,8h-80c-4.418,0-8-3.582-8-8s3.582-8,8-8h80C348.418,112,352,115.582,352,120z M352,144
	c0,4.418-3.582,8-8,8h-96c-4.418,0-8-3.582-8-8s3.582-8,8-8h96C348.418,136,352,139.582,352,144z M264,184c-4.418,0-8-3.582-8-8
	s3.582-8,8-8h40c4.418,0,8,3.582,8,8s-3.582,8-8,8H264z M248,192h64c4.418,0,8,3.582,8,8s-3.582,8-8,8h-64c-4.418,0-8-3.582-8-8
	S243.582,192,248,192z M320,224c4.418,0,8,3.582,8,8s-3.582,8-8,8h-56c-4.418,0-8-3.582-8-8s3.582-8,8-8H320z M248,248h96
	c4.418,0,8,3.582,8,8s-3.582,8-8,8h-96c-4.418,0-8-3.582-8-8S243.582,248,248,248z M352,288c0,4.418-3.582,8-8,8h-80
	c-4.418,0-8-3.582-8-8s3.582-8,8-8h80C348.418,280,352,283.582,352,288z M352,312c0,4.418-3.582,8-8,8h-96c-4.418,0-8-3.582-8-8
	s3.582-8,8-8h96C348.418,304,352,307.582,352,312z M162.343,133.657c-3.125-3.125-3.125-8.189,0-11.314
	c3.124-3.123,8.189-3.123,11.313,0L184,132.687l18.343-18.344c3.124-3.123,8.189-3.123,11.313,0c3.125,3.125,3.125,8.189,0,11.314
	l-24,24C188.095,151.219,186.047,152,184,152s-4.095-0.781-5.657-2.343L162.343,133.657z M162.343,245.657
	c-3.125-3.125-3.125-8.189,0-11.314c3.124-3.123,8.189-3.123,11.313,0L184,244.687l18.343-18.344c3.124-3.123,8.189-3.123,11.313,0
	c3.125,3.125,3.125,8.189,0,11.314l-24,24C188.095,263.219,186.047,264,184,264s-4.095-0.781-5.657-2.343L162.343,245.657z
	 M162.343,301.657c-3.125-3.125-3.125-8.189,0-11.314c3.124-3.123,8.189-3.123,11.313,0L184,300.687l18.343-18.344
	c3.124-3.123,8.189-3.123,11.313,0c3.125,3.125,3.125,8.189,0,11.314l-24,24C188.095,319.219,186.047,320,184,320
	s-4.095-0.781-5.657-2.343L162.343,301.657z M204.8,182.4l-7.466,5.6l7.466,5.6c3.535,2.651,4.251,7.666,1.6,11.2
	c-1.571,2.096-3.974,3.2-6.406,3.2c-1.67,0-3.354-0.521-4.793-1.6L184,198l-11.2,8.4c-1.439,1.079-3.124,1.6-4.793,1.6
	c-2.433,0-4.834-1.104-6.406-3.2c-2.651-3.534-1.935-8.549,1.6-11.2l7.466-5.6l-7.466-5.6c-3.535-2.651-4.251-7.666-1.6-11.2
	c2.65-3.535,7.665-4.251,11.2-1.601L184,178l11.2-8.4c3.535-2.651,8.549-1.934,11.2,1.601
	C209.051,174.734,208.334,179.749,204.8,182.4z M464,112c0,4.418-3.582,8-8,8h-32c-4.418,0-8-3.582-8-8s3.582-8,8-8h32
	C460.418,104,464,107.582,464,112z M464,144c0,4.418-3.582,8-8,8h-48c-4.418,0-8-3.582-8-8s3.582-8,8-8h48
	C460.418,136,464,139.582,464,144z M464,176c0,4.418-3.582,8-8,8h-48c-4.418,0-8-3.582-8-8s3.582-8,8-8h48
	C460.418,168,464,171.582,464,176z M464,208c0,4.418-3.582,8-8,8h-16c-4.418,0-8-3.582-8-8s3.582-8,8-8h16
	C460.418,200,464,203.582,464,208z M48,112c0-4.418,3.582-8,8-8h32c4.418,0,8,3.582,8,8s-3.582,8-8,8H56
	C51.582,120,48,116.418,48,112z M48,144c0-4.418,3.582-8,8-8h48c4.418,0,8,3.582,8,8s-3.582,8-8,8H56C51.582,152,48,148.418,48,144z
	 M48,176c0-4.418,3.582-8,8-8h48c4.418,0,8,3.582,8,8s-3.582,8-8,8H56C51.582,184,48,180.418,48,176z M56,216c-4.418,0-8-3.582-8-8
	s3.582-8,8-8h16c4.418,0,8,3.582,8,8s-3.582,8-8,8H56z"></path></svg></g></svg>