<svg id="SvgjsSvg1098" width="288" height="288" xmlns="http://www.w3.org/2000/svg" version="1.1" xmlns:xlink="http://www.w3.org/1999/xlink" xmlns:svgjs="http://svgjs.com/svgjs"><defs id="SvgjsDefs1099"></defs><g id="SvgjsG1100"><svg xmlns="http://www.w3.org/2000/svg" xmlns:xlink="http://www.w3.org/1999/xlink" data-name="Layer 1" viewBox="0 0 64 64" width="288" height="288"><defs><linearGradient id="a" x1="22" x2="50" y1="31" y2="31" gradientUnits="userSpaceOnUse"><stop offset="0" stop-color="#fa0203" class="stopColorfeb78b svgShape"></stop><stop offset="1" stop-color="#008653" class="stopColorde6463 svgShape"></stop></linearGradient><linearGradient id="b" x1="14" y1="39" y2="39" xlink:href="#a"></linearGradient><linearGradient id="c" x1="14" y1="47" y2="47" xlink:href="#a"></linearGradient><linearGradient id="d" x1="14" x2="38" y1="55" y2="55" xlink:href="#a"></linearGradient><linearGradient id="e" x1="14" x2="24" y1="23" y2="23" xlink:href="#a"></linearGradient><linearGradient id="f" x1="6" x2="58" y1="32" y2="32" xlink:href="#a"></linearGradient><linearGradient id="g" x1="30" x2="42" y1="17" y2="17" xlink:href="#a"></linearGradient><linearGradient id="h" x1="40" y1="12" y2="12" xlink:href="#a"></linearGradient><linearGradient id="i" x1="56" x2="58" y1="39.006" y2="39.006" xlink:href="#a"></linearGradient></defs><path fill="url(#a)" d="M49,30H23a1,1,0,0,0,0,2H49a1,1,0,0,0,0-2Z"></path><path fill="url(#b)" d="M49,38H15a1,1,0,0,0,0,2H49a1,1,0,0,0,0-2Z"></path><path fill="url(#c)" d="M50,47a1,1,0,0,0-1-1H15a1,1,0,0,0,0,2H49A1,1,0,0,0,50,47Z"></path><path fill="url(#d)" d="M15,54a1,1,0,0,0,0,2H37a1,1,0,0,0,0-2Z"></path><path fill="url(#e)" d="M15,24h8a1,1,0,0,0,0-2H15a1,1,0,0,0,0,2Z"></path><path fill="url(#f)" d="M58,1a1,1,0,0,0-1-1H7A1,1,0,0,0,6,1V63a1,1,0,0,0,1,1H45a1.009,1.009,0,0,0,.707-.293l12-12A1.009,1.009,0,0,0,58,51V43a1,1,0,0,0-2,0v7H45a1,1,0,0,0-1,1V62H8V2H56V35a1,1,0,0,0,2,0ZM54.586,52,46,60.586V52Z"></path><path fill="url(#g)" d="M31.949,23.316,33.721,18h4.558l1.772,5.316a1,1,0,1,0,1.9-.632l-4-12A1,1,0,0,0,37,10H35a1,1,0,0,0-.949.684l-4,12a1,1,0,1,0,1.9.632ZM35.721,12h.558l1.334,4H34.387Z"></path><path fill="url(#h)" d="M49,11H46V8a1,1,0,0,0-2,0v3H41a1,1,0,0,0,0,2h3v3a1,1,0,0,0,2,0V13h3a1,1,0,0,0,0-2Z"></path><path fill="url(#i)" d="M56.29,38.29a1.155,1.155,0,0,0-.21.33.943.943,0,0,0,0,.76,1.155,1.155,0,0,0,.21.33A1.052,1.052,0,0,0,57,40a1.033,1.033,0,0,0,.71-.29,1.155,1.155,0,0,0,.21-.33.942.942,0,0,0,0-.76,1.155,1.155,0,0,0-.21-.33A1.047,1.047,0,0,0,56.29,38.29Z"></path></svg></g></svg>