<svg id="SvgjsSvg1023" width="288" height="288" xmlns="http://www.w3.org/2000/svg" version="1.1" xmlns:xlink="http://www.w3.org/1999/xlink" xmlns:svgjs="http://svgjs.com/svgjs"><defs id="SvgjsDefs1024"></defs><g id="SvgjsG1025"><svg xmlns="http://www.w3.org/2000/svg" data-name="Layer 2" viewBox="0 0 41.98 64.39" width="288" height="288"><rect width="40.98" height="63.39" x=".5" y=".5" fill="#008653" rx="5.06" ry="5.06" class="colorffb807 svgShape"></rect><rect width="40.98" height="63.39" x=".5" y=".5" fill="none" stroke="#000" stroke-linecap="round" stroke-linejoin="round" rx="5.06" ry="5.06" class="colorStroke000 svgStroke"></rect><rect width="32.98" height="47.49" x="4.5" y="7.45" fill="#ffffff" rx="1.89" ry="1.89" class="colorfff svgShape"></rect><rect width="32.98" height="47.49" x="4.5" y="7.45" fill="none" stroke="#231f20" stroke-linecap="round" stroke-linejoin="round" rx="1.89" ry="1.89" class="colorStroke231f20 svgStroke"></rect><path fill="#ffffff" d="M23.08 59.42c0 1.16-.93 2.09-2.08 2.09s-2.09-.93-2.09-2.09.94-2.08 2.09-2.08 2.08.93 2.08 2.08" class="colorfff svgShape"></path><path fill="none" stroke="#231f20" stroke-linecap="round" stroke-linejoin="round" d="M23.08 59.42c0 1.16-.93 2.09-2.08 2.09s-2.09-.93-2.09-2.09.94-2.08 2.09-2.08 2.08.93 2.08 2.08" class="colorStroke231f20 svgStroke"></path><path fill="#ffffff" stroke="#231f20" stroke-linecap="round" stroke-linejoin="round" d="M15.56 3.76h6.56M24.48 3.76h1.94" class="colorfff svgShape colorStroke231f20 svgStroke"></path><path fill="#f7f5f7" d="M32.81 26.03c0 6.53-5.29 11.83-11.82 11.83S9.17 32.56 9.17 26.03s5.29-11.82 11.82-11.82 11.82 5.3 11.82 11.82" class="colorc3b8c3 svgShape"></path><path fill="none" stroke="#000" stroke-linecap="round" stroke-linejoin="round" d="M32.81 26.03c0 6.53-5.29 11.83-11.82 11.83S9.17 32.56 9.17 26.03s5.29-11.82 11.82-11.82 11.82 5.3 11.82 11.82" class="colorStroke000 svgStroke"></path><path fill="#fe4e3e" d="M17 21.27v10.26c0 .96 1.06 1.55 1.87 1.03l8.12-5.13c.76-.48.76-1.59 0-2.07l-8.12-5.13c-.81-.51-1.87.07-1.87 1.03Z" class="colorfe4e3e svgShape"></path><path fill="none" stroke="#000" stroke-linecap="round" stroke-linejoin="round" d="M17 21.27v10.26c0 .96 1.06 1.55 1.87 1.03l8.12-5.13c.76-.48.76-1.59 0-2.07l-8.12-5.13c-.81-.51-1.87.07-1.87 1.03Z" class="colorStroke000 svgStroke"></path><path fill="#ffffff" stroke="#231f20" stroke-linecap="round" stroke-linejoin="round" d="M34.19 43.74H7.83" class="colorfff svgShape colorStroke231f20 svgStroke"></path><path fill="#008653" stroke="#000" stroke-linecap="round" stroke-linejoin="round" d="M17.17 43.74a1.83 1.83 0 1 1-3.662-.002 1.83 1.83 0 0 1 3.662.002" class="colorffb807 svgShape colorStroke000 svgStroke"></path></svg></g></svg>