<svg id="SvgjsSvg1001" width="288" height="288" xmlns="http://www.w3.org/2000/svg" version="1.1" xmlns:xlink="http://www.w3.org/1999/xlink" xmlns:svgjs="http://svgjs.com/svgjs"><defs id="SvgjsDefs1002"></defs><g id="SvgjsG1008"><svg xmlns="http://www.w3.org/2000/svg" viewBox="0 0 64 64" width="288" height="288"><polygon fill="#ffffff" points="46 10.71 46 61 4 61 4 3 38 3 46 10.71" class="colorfff svgShape"></polygon><path fill="#ffffff" d="M46,10.71V14H37a2,2,0,0,1-2-2V3h3Z" class="colore6e6e6 svgShape"></path><polygon fill="#fa0403" points="38 3 38 11 46 11 38 3" class="colorfd9467 svgShape"></polygon><path fill="#ffffff" d="M46,20V40.9l-5.49,6.54L30.39,51.83a2,2,0,0,1-2.74-2.3l2.56-10.74Z" class="colore6e6e6 svgShape"></path><path fill="#fa0403" d="M38.67,45,31,48.28,33,40.18,53.71,15.45a2.48,2.48,0,0,1,3.5-.3l1.9,1.59a2.49,2.49,0,0,1,.31,3.5Z" class="colorfd9467 svgShape"></path><line x1="57.02" x2="51.32" y1="23.09" y2="18.3" fill="#fd9467"></line><line x1="38.67" x2="32.96" y1="44.97" y2="40.18" fill="#fd9467"></line><path fill="#008653" d="M59.42,20.24,57,23.09l-5.7-4.79,2.39-2.85a2.48,2.48,0,0,1,3.5-.3l1.9,1.59A2.49,2.49,0,0,1,59.42,20.24Z" class="color61c3b6 svgShape"></path><polygon fill="#ffffff" points="38.67 44.97 31.03 48.28 32.96 40.18 38.67 44.97" class="colorfff svgShape"></polygon><path fill="#8d8f90" d="M59.76,16l-1.91-1.6a3.48,3.48,0,0,0-4.9.43l-2.4,2.85h0L47,21.9V11.83a3,3,0,0,0-.88-2.12L39.29,2.88A3,3,0,0,0,37.17,2H6A3,3,0,0,0,3,5V59a3,3,0,0,0,3,3H44a3,3,0,0,0,3-3V36.6L60.19,20.88a3.48,3.48,0,0,0,.8-2.54A3.43,3.43,0,0,0,59.76,16ZM39,5.41,43.59,10H39ZM45,59a1,1,0,0,1-1,1H6a1,1,0,0,1-1-1V5A1,1,0,0,1,6,4H37v7a1,1,0,0,0,1,1h7V24.28L32.2,39.54a.93.93,0,0,0-.2.38s0,0,0,0l-1.93,8.1a1,1,0,0,0,.33,1,1,1,0,0,0,.64.24,1.14,1.14,0,0,0,.4-.08l7.64-3.32h0a1,1,0,0,0,.36-.27L45,39ZM33.56,42l3.23,2.71-4.32,1.88Zm5,1.58-4.18-3.5L51.44,19.71l4.18,3.51Zm20.1-24L56.9,21.68l-4.17-3.5,1.75-2.09a1.49,1.49,0,0,1,2.09-.18l1.9,1.6a1.49,1.49,0,0,1,.18,2.09Z" class="color4e5b5f svgShape"></path><path fill="#fa0403" d="M11,14H22a1,1,0,0,0,0-2H11a1,1,0,0,0,0,2Z" class="colorfd9467 svgShape"></path><path fill="#008653" d="M11 23H39a1 1 0 0 0 0-2H11a1 1 0 0 0 0 2zM11 32H33a1 1 0 0 0 0-2H11a1 1 0 0 0 0 2zM27 38H11a1 1 0 0 0 0 2H27a1 1 0 0 0 0-2zM25 47H11a1 1 0 0 0 0 2H25a1 1 0 0 0 0-2z" class="color61c3b6 svgShape"></path></svg></g></svg>